<svg width="51" height="50" viewBox="0 0 51 50" fill="none" xmlns="http://www.w3.org/2000/svg">
<g opacity="0.6" clip-path="url(#clip0_465_437)">
<path d="M50.5 48.3872H48.8871V50.0001H50.5V48.3872Z" fill="#10100F"/>
<path d="M43.2419 12.9032H46.5984L49.6935 11.8718V0H28.7258V11.8718L31.821 12.9032H35.1774V14.5161H17.9548C19.6032 13.1847 20.6613 11.15 20.6613 8.87097V8.06452V6.45161C20.6613 3.54194 18.4476 1.13952 15.6161 0.839516C15.3411 0.341936 14.8177 0 14.2097 0H12.5968C11.9887 0 11.4653 0.341936 11.1903 0.839516C8.35887 1.13952 6.14516 3.54194 6.14516 6.45161V8.06452V8.87097C6.14516 11.15 7.20323 13.1847 8.85161 14.5161H7.75806C3.75645 14.5161 0.5 17.7718 0.5 21.7742V29.8387C0.5 32.5073 2.67016 34.6774 5.33871 34.6774V48.3871H0.5V50H5.33871H21.4677H35.1774H43.2419H47.2742V48.3871H43.2419V12.9032ZM15.8226 2.50081C17.6605 2.875 19.0484 4.50403 19.0484 6.45161H15.8226V2.50081ZM12.5968 1.6129H14.2097V6.45161H12.5968V1.6129ZM12.5968 8.06452H14.2097H15.8226H17.4694C16.5564 8.49516 15.2379 8.87097 13.4032 8.87097C11.5435 8.87097 10.2194 8.49597 9.31048 8.06452H10.9839H12.5968ZM10.9839 2.50081V6.45161H7.75806C7.75806 4.50403 9.14597 2.875 10.9839 2.50081ZM7.76613 9.0371C8.87661 9.75081 10.675 10.4839 13.4032 10.4839C16.1315 10.4839 17.9298 9.75081 19.0403 9.0371C18.9508 12.0726 16.4597 14.5161 13.4032 14.5161C10.3468 14.5161 7.85564 12.0726 7.76613 9.0371ZM14.6 16.129L13.4032 18.9202L12.2065 16.129H14.6ZM8.56452 19.3548V16.129H10.4524L12.5968 21.1331V25H6.95161V21.6258C7.8879 21.2919 8.56452 20.4048 8.56452 19.3548ZM6.95161 31.4516V29.8387H12.5968V31.4516H6.95161ZM8.56452 33.0645V33.871C8.56452 34.7605 7.84113 35.4839 6.95161 35.4839V33.0645H8.56452ZM6.95161 28.2258V26.6129H12.5968V28.2258H6.95161ZM5.33871 33.0645C4.15 33.0645 3.12097 32.4113 2.56129 31.4516H5.33871V33.0645ZM6.14516 20.1613H5.33871V29.8387H2.1129V21.7742C2.1129 18.9363 4.22016 16.5871 6.95161 16.1935V19.3548C6.95161 19.8 6.58952 20.1613 6.14516 20.1613ZM12.5968 48.3871H6.95161V46.7742H12.5968V48.3871ZM19.8548 48.3871H14.2097V46.7742H19.8548V48.3871ZM19.8548 45.1613H14.2097V36.2903H12.5968V45.1613H6.95161V37.0968C8.73064 37.0968 10.1774 35.65 10.1774 33.871V33.0645H16.629V33.871C16.629 35.65 18.0758 37.0968 19.8548 37.0968V45.1613ZM19.8548 35.4839C18.9653 35.4839 18.2419 34.7605 18.2419 33.871V33.0645H19.8548V35.4839ZM19.8548 31.4516H14.2097V29.8387H19.8548V31.4516ZM19.8548 28.2258H14.2097V26.6129H19.8548V28.2258ZM19.8548 25H14.2097V21.1331L16.354 16.129H18.2419V19.3548C18.2419 20.4048 18.9185 21.2919 19.8548 21.6258V25ZM20.6613 20.1613C20.2169 20.1613 19.8548 19.8 19.8548 19.3548V16.129H31.1452V20.1613H20.6613ZM35.1774 48.3871H21.4677V21.7742H35.1774V48.3871ZM35.1774 20.1613H32.7581V16.129H35.1774V20.1613ZM41.629 14.8242L38.8492 16.2145L39.571 17.6573L41.629 16.6274V24.5016L38.8492 25.8919L39.571 27.3347L41.629 26.3048V34.179L38.8492 35.5694L39.571 37.0121L41.629 35.9823V43.8565L38.8492 45.2468L39.571 46.6895L41.629 45.6597V48.3871H36.7903V42.4339L39.5702 41.0435L38.8484 39.6008L36.7903 40.6306V32.7565L39.5702 31.3661L38.8484 29.9234L36.7903 30.9532V23.079L39.5702 21.6887L38.8484 20.246L36.7903 21.2758V12.9032H41.629V14.8242ZM41.629 8.06452V11.2903H40.0161V8.06452H38.4032V11.2903H36.7903V8.06452H35.1774V11.2903H33.5645V8.06452H31.9516V11.2468L30.3387 10.7089V4.83871H44.8548V3.22581H30.3387V1.6129H48.0806V3.22581H46.4677V4.83871H48.0806V10.7089L46.4677 11.2468V8.06452H44.8548V11.2903H43.2419V8.06452H41.629Z" fill="#10100F"/>
<path d="M29.5323 44.355V45.9679H29.6702C30.9258 45.9679 32.1065 46.4566 32.9944 47.3445L34.1347 46.2042C32.9419 45.0114 31.3565 44.355 29.6702 44.355H29.5323Z" fill="#10100F"/>
<path d="M31.8161 41.9764L32.0871 42.3829L33.429 41.4885L33.1581 41.0821C32.1685 39.5966 30.5113 38.7095 28.7258 38.7095V40.3224C29.9702 40.3224 31.1258 40.9409 31.8161 41.9764Z" fill="#10100F"/>
<path d="M48.8871 44.355H48.7492C47.0629 44.355 45.4774 45.0114 44.2847 46.2042L45.425 47.3445C46.3129 46.4566 47.4935 45.9679 48.7492 45.9679H48.8871V44.355Z" fill="#10100F"/>
<path d="M45.2613 41.0812L44.9903 41.4877L46.3323 42.3821L46.6032 41.9756C47.2936 40.9409 48.4492 40.3224 49.6936 40.3224V38.7095C47.9081 38.7095 46.2508 39.5966 45.2613 41.0812Z" fill="#10100F"/>
</g>
<defs>
<clipPath id="clip0_465_437">
<rect width="50" height="50" fill="white" transform="translate(0.5)"/>
</clipPath>
</defs>
</svg>
