<svg width="51" height="50" viewBox="0 0 51 50" fill="none" xmlns="http://www.w3.org/2000/svg">
<g opacity="0.6">
<path d="M30.0454 2.27275C28.7954 2.27275 27.5454 2.72734 26.6363 3.40908V1.13633C26.6363 0.45459 26.1818 0 25.5 0C24.8182 0 24.3637 0.45459 24.3637 1.13633V3.40908C23.4546 2.72725 22.2046 2.27275 20.9546 2.27275C20.2728 2.27275 19.8183 2.72734 19.8183 3.40908C19.8183 4.09092 20.2729 4.54541 20.9546 4.54541C22.8864 4.54541 24.3637 6.02266 24.3637 7.95449C24.3637 8.63633 24.8183 9.09082 25.5 9.09082C26.1817 9.09082 26.6363 8.63623 26.6363 7.95449C26.6363 6.02266 28.1136 4.54541 30.0454 4.54541C30.7273 4.54541 31.1817 4.09082 31.1817 3.40908C31.1818 2.72725 30.7273 2.27275 30.0454 2.27275Z" fill="#10100F"/>
<path d="M44.4772 48.0682L42.2045 45.7955C41.9772 45.5682 41.7499 45.4546 41.4091 45.4546H38.9091L32.3182 10.0001C32.2045 9.54547 31.9773 9.31823 31.5228 9.09098C31.1818 8.97731 30.7273 9.09098 30.3864 9.31823L26.6364 12.6136V12.5001C26.6364 11.8182 26.1818 11.3637 25.5001 11.3637C24.8184 11.3637 24.3638 11.8183 24.3638 12.5001V12.841L20.6138 9.4319C20.2729 9.20465 19.9319 9.09098 19.4774 9.20465C19.1365 9.31833 18.7956 9.65924 18.682 10.1137L12.0911 45.4547H9.59112C9.2502 45.4547 9.02296 45.5683 8.79561 45.7956L6.52286 48.0683C6.06827 48.5229 6.06827 49.2047 6.52286 49.6592C6.75001 49.8864 6.97725 50.0001 7.31817 50.0001C7.65909 50.0001 7.88633 49.8864 8.11358 49.6591L10.0454 47.7273H20.9545C21.6363 47.7273 22.0908 47.2727 22.0908 46.591C22.0908 45.9092 21.6362 45.4547 20.9545 45.4547H17.0908L24.3636 41.1365V48.8637C24.3636 49.5456 24.8182 50.0001 25.4999 50.0001C26.1816 50.0001 26.6362 49.5455 26.6362 48.8637V40.7956L34.0226 45.4547H30.0453C29.3635 45.4547 28.909 45.9092 28.909 46.591C28.909 47.2727 29.3636 47.7273 30.0453 47.7273H40.9544L42.8862 49.6591C43.1135 49.8864 43.4544 50.0001 43.6816 50.0001C43.9089 50.0001 44.2498 49.8864 44.4771 49.6591C44.9318 49.2047 44.9318 48.5228 44.4772 48.0682ZM18.5682 22.9547L23.5682 26.4774L17.0909 31.1365L18.5682 22.9547ZM14.4773 44.3182L16.4091 34.3182L23.5682 38.8636L14.4773 44.3182ZM24.3637 36.591L18.4546 32.841L24.3637 28.6364V36.591ZM24.4772 24.2047L19.0227 20.4547L20.6136 12.3865L23.6817 15.1137L20.2727 18.0683C19.8181 18.5229 19.7045 19.2047 20.159 19.6592C20.6135 20.1138 21.2953 20.2274 21.7499 19.7729L24.4772 17.5002L24.4772 24.2047ZM30.3863 12.3864L31.75 19.5455L26.9773 15.2273L30.3863 12.3864ZM26.6363 17.9547L30.6136 21.591L28.2273 23.6364C27.6591 23.9773 27.6591 24.6591 28 25.1136C28.2273 25.3409 28.5682 25.5682 28.9091 25.5682C29.1363 25.5682 29.4772 25.4546 29.5909 25.341L32.3182 23.0682L33.7954 31.1364L26.6363 25.9091V17.9547ZM26.6363 38.0682V28.6364L32.6591 32.9546L29.3637 35.4546C28.9091 35.7955 28.7955 36.5909 29.1364 37.0455C29.3637 37.3864 29.7046 37.5001 30.0455 37.5001C30.2728 37.5001 30.5001 37.3864 30.7273 37.2728L34.591 34.4319L36.4092 44.3182L26.6363 38.0682Z" fill="#10100F"/>
</g>
</svg>
