<svg width="51" height="51" viewBox="0 0 51 51" fill="none" xmlns="http://www.w3.org/2000/svg">
<g opacity="0.6">
<path d="M49.4353 48.326H45.1802V18.8707C46.2652 17.7294 46.5525 16.0339 45.8929 14.5882L40.542 2.74097C39.6697 0.806236 37.4357 -0.0306519 35.5422 0.849746C35.4358 0.904057 35.3295 0.958471 35.2338 1.01278L33.2339 2.19755C31.4255 3.26269 30.8191 5.63222 31.8616 7.46903C31.9147 7.56685 31.9786 7.66468 32.0424 7.7516L33.7445 10.2298L9.31976 24.6205C8.0113 25.3922 7.55384 27.0986 8.3092 28.4464V28.4573C8.49001 28.7617 8.72407 29.0226 9.00062 29.2399V45.0654H6.88365C6.29853 45.0654 5.81983 45.5545 5.81983 46.1523V48.3261H1.59665C1.06479 48.3261 0.586084 48.7174 0.511585 49.25C0.415844 49.9239 0.926463 50.5 1.56474 50.5H49.4034C49.9352 50.5 50.4139 50.1087 50.4884 49.5761C50.5842 48.902 50.0735 48.326 49.4353 48.326ZM10.0964 26.8812C10.1389 26.7182 10.2453 26.5768 10.3836 26.5008L34.9784 12.0232L35.6698 13.0231L11.0112 27.5878C10.7133 27.7617 10.3303 27.6639 10.1602 27.3595C10.075 27.2182 10.0538 27.0442 10.0964 26.8812ZM19.1492 33.1092L20.5534 24.4573L30.5104 18.5771L32.8933 33.1091L19.1492 33.1092ZM31.4359 35.2831L26.0319 39.5763L20.6172 35.2831H31.4359ZM12.2027 48.326H7.94747V47.2391H12.2027V48.326ZM14.3302 48.326V46.1522C14.3302 45.5544 13.8515 45.0653 13.2664 45.0653H11.1388V29.7832C11.4686 29.7397 11.7771 29.6311 12.075 29.4681L18.1705 25.8704L14.5111 48.326H14.3302ZM18.5961 36.4351L24.2874 40.9567L16.8941 46.826L18.5961 36.4351ZM18.4897 48.326L26.032 42.3372L33.5743 48.326H18.4897ZM27.7659 40.9568L33.4358 36.4569L35.1273 46.8044L27.7659 40.9568ZM43.0632 48.326H37.5421L32.4891 17.4143L36.9039 14.8057L39.4038 18.436C40.2123 19.6534 41.6484 20.2729 43.0632 20.0229V48.326ZM43.1696 17.7185C42.4463 18.0555 41.5952 17.8273 41.1378 17.1642L33.787 6.49081C33.5104 6.12123 33.4147 5.64302 33.5104 5.17562C33.6062 4.71911 33.8934 4.31692 34.2976 4.07787L36.2975 2.8931C36.5421 2.74097 36.8294 2.66485 37.1166 2.66485C37.2868 2.66485 37.457 2.68656 37.6165 2.74097C38.0633 2.8823 38.425 3.20838 38.6165 3.64307L43.9674 15.4904C44.3504 16.3273 43.9887 17.3272 43.1696 17.7185Z" fill="#10100F"/>
</g>
</svg>
