<svg width="50" height="50" viewBox="0 0 50 50" fill="none" xmlns="http://www.w3.org/2000/svg">
<g opacity="0.6">
<path d="M42.3294 35.8773C40.1577 35.8773 38.2084 36.7131 36.8151 38.0471L33.5937 35.0841C36.8483 32.7323 38.9492 29.089 38.9492 24.9993C38.9492 21.3733 37.2973 18.1048 34.6636 15.7689L37.8879 12.8019C39.1427 13.6231 40.6703 14.1187 42.3265 14.1187C46.5644 14.1187 49.998 10.9604 49.998 7.062C49.998 3.16361 46.5629 0.00531477 42.3265 0.00531477C38.09 0.00531477 34.6564 3.16361 34.6564 7.062C34.6564 8.95405 35.4737 10.6614 36.792 11.9277L33.5691 14.896C31.1997 13.1939 28.231 12.1668 25.0009 12.1668C21.7001 12.1668 18.6693 13.2324 16.2782 15.0009L13.0828 12.0605C14.4776 10.7837 15.3425 9.0165 15.3425 7.05934C15.3411 3.15963 11.9075 0 7.67101 0C3.43455 0 0.000915527 3.16096 0.000915527 7.05934C0.000915527 10.9577 3.43455 14.116 7.67101 14.116C9.26076 14.116 10.7379 13.6722 11.9623 12.9109L15.1953 15.8845C12.641 18.211 11.0541 21.4371 11.0541 24.9967C11.0541 29.0266 13.0871 32.6234 16.2551 34.9738L13.0583 37.9182C11.6736 36.6573 9.77335 35.8787 7.67245 35.8787C3.436 35.8787 0.00235951 39.037 0.00235951 42.9367C0.00235951 46.8351 3.436 49.9934 7.67245 49.9934C11.9089 49.9934 15.3425 46.8351 15.3425 42.9367C15.3425 41.4525 14.8401 40.08 13.9896 38.9426L17.3886 35.8149L17.1431 35.589C19.3826 37.0014 22.0871 37.8305 24.9995 37.8305C27.714 37.8305 30.2438 37.0997 32.388 35.8614L35.9068 39.1007C35.1242 40.2062 34.6607 41.519 34.6607 42.942C34.6607 46.8417 38.0929 50 42.3308 50C46.5702 50 50.0009 46.8417 50.0009 42.942C49.9995 39.041 46.5673 35.8773 42.3294 35.8773ZM42.3294 2.70256C43.7112 2.70256 44.8274 3.47054 44.8274 4.92147C44.8274 6.37373 43.7112 7.95488 42.3294 7.95488C40.9475 7.95488 39.83 6.37373 39.83 4.92147C39.8285 3.47054 40.9475 2.70256 42.3294 2.70256ZM37.4865 10.3479C37.4865 9.73267 38.0612 8.97398 38.773 8.66307L40.3469 7.97481L41.4385 10.0675L41.9958 8.6737C42.1056 8.69363 42.2139 8.71755 42.3294 8.71755C42.442 8.71755 42.5489 8.68964 42.6615 8.6737L43.1914 9.99708L44.257 7.95222L45.8785 8.66041C46.586 8.96734 47.1679 9.73001 47.1679 10.3479V11.4161H37.4865V10.3479ZM7.6739 2.70256C9.05573 2.70256 10.1733 3.47054 10.1733 4.92147C10.1733 6.37373 9.05573 7.95488 7.6739 7.95488C6.29207 7.95488 5.17447 6.37373 5.17447 4.92147C5.17447 3.47054 6.29207 2.70256 7.6739 2.70256ZM12.5154 11.4174H2.83388V10.3465C2.83388 9.73134 3.41145 8.97266 4.12041 8.66174L5.69284 7.97215L6.78444 10.0662L7.3418 8.67237C7.45298 8.69097 7.56127 8.71622 7.67534 8.71622C7.78941 8.71622 7.8977 8.68832 8.00889 8.67237L8.5388 9.99575L9.6073 7.95089L11.2288 8.65908C11.9363 8.96601 12.5154 9.72868 12.5154 10.3465V11.4174ZM7.6739 38.5772C9.05573 38.5772 10.1733 39.3439 10.1733 40.7962C10.1733 42.2497 9.05573 43.8282 7.6739 43.8282C6.29207 43.8282 5.17447 42.2497 5.17447 40.7962C5.17447 39.3439 6.29207 38.5772 7.6739 38.5772ZM12.5154 47.2908H2.83388V46.2212C2.83388 45.606 3.41145 44.846 4.12041 44.5364L5.69284 43.8442L6.78444 45.9382L7.3418 44.5431C7.45153 44.563 7.56127 44.5869 7.67534 44.5869C7.78941 44.5869 7.8977 44.5603 8.00889 44.5431L8.5388 45.8664L9.6073 43.8216L11.2288 44.5298C11.9363 44.838 12.5154 45.5994 12.5154 46.2185V47.2908ZM22.6805 14.0881C20.6706 15.6294 19.1401 17.5626 18.1957 19.7218H14.3693C16.0587 16.8465 19.0852 14.7339 22.6805 14.0881ZM12.9168 24.9967C12.9168 23.749 13.1507 22.5519 13.5636 21.4331H17.5821C17.2658 22.5599 17.0984 23.7304 17.0984 24.9236C17.0984 26.0184 17.2456 27.0934 17.5113 28.1337H13.4149C13.0944 27.1372 12.9168 26.0862 12.9168 24.9967ZM14.1412 29.8437H18.0788C19.0448 32.1995 20.6952 34.3042 22.9043 35.9371C19.0404 35.3126 15.8118 32.9954 14.1412 29.8437ZM24.071 34.5792C22.3224 33.2864 20.9738 31.6667 20.1031 29.8464H24.071V34.5792ZM24.071 28.1337H19.4346C19.1285 27.0987 18.9581 26.0238 18.9581 24.9236C18.9581 23.7225 19.1689 22.5545 19.5328 21.4331H24.071V28.1337ZM24.071 19.7218H20.2475C21.1197 18.0171 22.4149 16.4944 24.071 15.2653V19.7218ZM37.0865 24.9967C37.0865 26.0862 36.9089 27.1372 36.5869 28.1337H32.4891C32.7576 27.0934 32.9006 26.0184 32.9006 24.9236C32.9006 23.7304 32.7345 22.5599 32.4183 21.4331H36.4339C36.8526 22.5532 37.0865 23.749 37.0865 24.9967ZM35.6368 19.7218H31.8104C30.8676 17.5626 29.3341 15.6294 27.3256 14.0881C30.9181 14.7339 33.9445 16.8465 35.6368 19.7218ZM25.9308 15.268C27.587 16.4957 28.8836 18.0157 29.7528 19.7244H25.9308V15.268ZM25.9308 21.4345H30.4705C30.8343 22.5559 31.0452 23.7238 31.0452 24.9249C31.0452 26.0251 30.8762 27.0987 30.5687 28.135H25.9322L25.9308 21.4345ZM25.9308 29.8437H29.8987C29.0266 31.6654 27.6794 33.2877 25.9308 34.5792V29.8437ZM31.9231 29.8437H35.8621C34.1972 32.9941 30.9643 35.3113 27.1018 35.9371C29.3052 34.3042 30.9585 32.1995 31.9231 29.8437ZM42.3294 38.5772C43.7112 38.5772 44.8274 39.3439 44.8274 40.7962C44.8274 42.2497 43.7112 43.8282 42.3294 43.8282C40.9475 43.8282 39.83 42.2497 39.83 40.7962C39.8285 39.3439 40.9475 38.5772 42.3294 38.5772ZM47.1694 47.2908H37.4879V46.2212C37.4879 45.606 38.064 44.846 38.7759 44.5364L40.3498 43.8442L41.4414 45.9382L42.0002 44.5431C42.1099 44.563 42.2168 44.5869 42.3323 44.5869C42.4449 44.5869 42.5546 44.5603 42.6629 44.5431L43.1928 45.8664L44.2599 43.8216L45.8814 44.5298C46.5889 44.838 47.1694 45.5994 47.1694 46.2185V47.2908Z" fill="#10100F"/>
</g>
</svg>
