<svg width="50" height="50" viewBox="0 0 50 50" fill="none" xmlns="http://www.w3.org/2000/svg">
<g opacity="0.6">
<path d="M48.2227 31.6669H43.3336V30.111C43.3336 29.1298 42.5378 28.3336 41.5561 28.3336H38.4444C37.4627 28.3336 36.6669 29.1298 36.6669 30.111V31.667H30.8333V22.5005H33.2228C34.2048 22.5005 35.0003 21.7049 35.0003 20.723V17.6114C35.0003 16.6302 34.2046 15.8339 33.2228 15.8339H29.1743L26.5568 11.2539C26.4084 10.9943 26.1324 10.8341 25.8335 10.834V9.16733H29.1669C29.2667 9.16733 29.3659 9.14936 29.4595 9.11432L35.9846 6.6674H42.5002C43.8804 6.6674 45.0001 5.5477 45.0001 4.16748C45.0001 2.78725 43.8804 1.66755 42.5002 1.66755H35.8334C35.7335 1.66755 35.6343 1.68552 35.5408 1.72056L29.0157 4.16748H25.8334V0.833277C25.8334 0.373004 25.4603 0 25.0001 0C24.5399 0 24.1668 0.373103 24.1668 0.833277V4.16738H20.9845L14.4593 1.72056C14.3658 1.68552 14.2666 1.66755 14.1667 1.66755H7.50004C6.11979 1.66755 5.00006 2.78725 5.00006 4.16748C5.00006 5.5477 6.11979 6.6674 7.50004 6.6674H14.0156L20.5407 9.11432C20.6343 9.14936 20.7335 9.16733 20.8333 9.16733H24.1667V10.834H24.1664C23.8674 10.834 23.5912 10.9942 23.4428 11.254L20.8261 15.8339H16.7777C15.7959 15.8339 15.0002 16.6302 15.0002 17.6114V20.723C15.0002 21.7049 15.7957 22.5005 16.7777 22.5005H19.1664V31.667H13.3333V30.111C13.3333 29.1298 12.5375 28.3336 11.5558 28.3336H8.44423C7.46251 28.3336 6.66675 29.1298 6.66675 30.111V31.667H1.77749C0.795764 31.667 0 32.4632 0 33.4444V43.2227C0 44.2046 0.795566 45.0001 1.77749 45.0001H6.66665V46.5558C6.66665 47.5377 7.46221 48.3332 8.44413 48.3332H11.5558C12.5377 48.3332 13.3333 47.5377 13.3333 46.5558V45.0001H21.6152C21.3691 46.4234 21.7535 47.6988 22.7967 48.7427C24.4741 50.419 27.1923 50.419 28.8694 48.7431C29.8787 47.7332 30.2729 46.3885 30.0747 45.0002H36.6667V46.5559C36.6667 47.5378 37.4623 48.3333 38.4442 48.3333H41.5559C42.5378 48.3333 43.3334 47.5378 43.3334 46.5559V45H48.2225C49.2044 45 50 44.2045 50 43.2226V33.4443C50.0002 32.4631 49.2044 31.6669 48.2227 31.6669ZM14.4593 5.05377C14.3658 5.01872 14.2666 5.00075 14.1667 5.00075H7.50004C7.04025 5.00075 6.66675 4.62715 6.66675 4.16748C6.66675 3.7077 7.04035 3.3342 7.50004 3.3342H14.0156L20.5407 5.78111C20.6343 5.81616 20.7335 5.83413 20.8333 5.83413H29.1667C29.2665 5.83413 29.3657 5.81616 29.4593 5.78111L35.9844 3.3342H42.5C42.9597 3.3342 43.3333 3.7078 43.3333 4.16748C43.3333 4.62725 42.9596 5.00075 42.5 5.00075H35.8332C35.7333 5.00075 35.6341 5.01872 35.5406 5.05377L29.0155 7.50068H20.9843L14.4593 5.05377ZM24.6501 12.5006H25.3496L27.2546 15.8339H22.7456L24.6501 12.5006ZM16.7778 20.8338C16.7163 20.8338 16.667 20.7844 16.667 20.723V17.6114C16.667 17.5504 16.7168 17.5006 16.7778 17.5006H21.3099H28.6908H33.2229C33.284 17.5006 33.3337 17.5504 33.3337 17.6114V20.723C33.3337 20.7845 33.2843 20.8338 33.2229 20.8338H30.8334H19.1664H16.7778ZM20.8331 22.5005H29.1665V31.667H20.8331V22.5005ZM1.77749 43.3335C1.71603 43.3335 1.66669 43.284 1.66669 43.2227V33.4444C1.66669 33.3835 1.71653 33.3336 1.77749 33.3336H6.66665V43.3335H1.77749ZM11.6667 46.5558C11.6667 46.6172 11.6173 46.6666 11.5559 46.6666H8.44423C8.38278 46.6666 8.33343 46.6171 8.33343 46.5558V44.1668V32.5004V30.111C8.33343 30.0501 8.38327 30.0002 8.44423 30.0002H11.5559C11.617 30.0002 11.6667 30.0501 11.6667 30.111V32.5004V44.1668V46.5558ZM27.691 47.5645C26.6651 48.5898 25.0016 48.5898 23.9753 47.5641C23.196 46.7843 22.9996 45.8096 23.4338 44.5897C23.4573 44.5498 23.4784 44.5081 23.4953 44.4637C23.6507 44.0565 23.8459 43.6619 24.0938 43.2644L25.2552 41.5292L25.8336 40.6653L27.5878 43.2871C27.6507 43.3742 27.7095 43.4614 27.7654 43.5489C27.9569 43.8496 28.1059 44.1495 28.2194 44.4562C28.2248 44.4706 28.2325 44.4837 28.2387 44.4978C28.6611 45.6717 28.465 46.7901 27.691 47.5645ZM29.5545 43.3335C29.4719 43.1635 29.3799 42.9946 29.2795 42.8274C29.2791 42.8268 29.2787 42.8261 29.2783 42.8255C29.2368 42.7564 29.1937 42.6877 29.1492 42.6192C29.1369 42.6002 29.1249 42.5811 29.1124 42.5621C29.0806 42.5143 29.0473 42.4667 29.014 42.4193C28.9947 42.3918 28.9766 42.3638 28.957 42.3364L27.1474 39.6322L26.6667 38.9135V37.5002C26.6667 37.04 26.2936 36.667 25.8334 36.667H25.0001V35.8337C25.0001 35.3734 24.627 35.0004 24.1668 35.0004C23.7066 35.0004 23.3335 35.3735 23.3335 35.8337V37.5003C23.3335 37.9606 23.7066 38.3336 24.1668 38.3336H25.0001V38.9138L23.8248 40.6704L22.6937 42.3602C22.4886 42.6893 22.3114 43.014 22.1608 43.3336H13.3334V33.3336H19.1665H30.8333H36.6669V43.3335H29.5545ZM41.6669 46.5558C41.6669 46.6172 41.6174 46.6666 41.5561 46.6666H38.4444C38.3829 46.6666 38.3336 46.6171 38.3336 46.5558V44.1668V32.5004V30.111C38.3336 30.0501 38.3834 30.0002 38.4444 30.0002H41.5561C41.6171 30.0002 41.6669 30.0501 41.6669 30.111V32.5002V44.1666V46.5558ZM48.3335 43.2225C48.3335 43.2839 48.2841 43.3333 48.2227 43.3333H43.3336V33.3335H48.2227C48.2838 33.3335 48.3335 33.3833 48.3335 33.4442V43.2225Z" fill="#10100F"/>
</g>
</svg>
