<svg width="177" height="55" viewBox="0 0 177 55" fill="none" xmlns="http://www.w3.org/2000/svg">
<g id="apple-store.svg">
<g id="Page-1">
<g id="apple-store">
<path id="Shape" d="M170.707 53.3531C173.819 53.3531 176.355 50.8519 176.4 47.745V7.66997C176.355 4.55432 173.819 2.0531 170.707 2.0531H6.20153C3.10802 2.0531 0.599976 4.5638 0.599976 7.66123V47.7437C0.606492 50.8391 3.11129 53.3466 6.20153 53.3531H170.707Z" fill="black" stroke="#A6A6A6" stroke-width="1.2"/>
<path id="Shape_2" d="M39.5004 27.3847C39.5362 24.7815 40.9014 22.3776 43.1188 21.0132C41.7121 19.0008 39.4375 17.7711 36.9833 17.6964C34.3613 17.4211 31.9097 19.2434 30.5856 19.2434C29.2615 19.2434 27.2163 17.7226 25.0401 17.7751C22.1723 17.8697 19.5644 19.4623 18.1704 21.9703C15.1945 27.1094 17.4101 34.6739 20.2549 38.8297C21.6839 40.8618 23.3358 43.1429 25.4989 43.0643C27.6621 42.9856 28.4225 41.7533 30.992 41.7533C33.5616 41.7533 34.2826 43.0643 36.5113 43.0643C38.74 43.0643 40.2346 41.0191 41.6111 38.9608C42.6342 37.5117 43.4217 35.91 43.9447 34.215C41.2197 33.0449 39.4663 30.3501 39.5004 27.3847Z" fill="white"/>
<path id="Shape_3" d="M35.3052 14.9695C36.5536 13.4738 37.1697 11.5503 37.0226 9.60754C35.1182 9.80565 33.3583 10.7137 32.0932 12.1509C30.8449 13.571 30.2129 15.4295 30.3365 17.3162C32.2648 17.3366 34.096 16.4718 35.3052 14.9695Z" fill="white"/>
<path id="Shape_4" d="M70.3351 42.7497H67.346L65.7204 37.6236H60.0569L58.4968 42.7497H55.5995L61.2106 25.3134H64.6847L70.3351 42.7497ZM65.2353 35.5392L63.7539 30.99C63.5966 30.4831 63.3213 29.3775 62.928 27.6732C62.7532 28.4161 62.4779 29.5129 62.102 30.9638L60.542 35.5392H65.2353Z" fill="white"/>
<path id="Shape_5" d="M84.7692 36.3126C84.8727 38.1643 84.2521 39.9836 83.0387 41.3861C82.0522 42.4668 80.6472 43.0689 79.1844 43.038C77.7568 43.1523 76.3835 42.4657 75.6184 41.255V47.8756H72.7605V34.3199C72.7605 32.9739 72.7255 31.593 72.6556 30.1771H75.1203L75.2776 32.1698C76.1345 30.8533 77.5635 30.0196 79.1313 29.9215C80.6991 29.8233 82.2209 30.4723 83.2354 31.6716C84.2929 32.9812 84.8381 34.6307 84.7692 36.3126ZM81.9243 36.4175C81.9647 35.3473 81.6765 34.2905 81.0984 33.389C80.5503 32.5862 79.6317 32.117 78.66 32.1436C77.9741 32.1418 77.3097 32.3833 76.7852 32.8253C76.2251 33.2818 75.8368 33.9151 75.684 34.6214C75.6068 34.8993 75.5628 35.1853 75.5529 35.4735V37.5711C75.5278 38.4231 75.8277 39.2527 76.3919 39.8916C76.944 40.5176 77.7471 40.8639 78.5813 40.8355C79.5572 40.877 80.4868 40.4172 81.046 39.6163C81.6695 38.6697 81.977 37.5498 81.9243 36.4175Z" fill="white"/>
<path id="Shape_6" d="M99.2427 36.3126C99.3461 38.1643 98.7256 39.9836 97.5121 41.3861C96.5267 42.4682 95.121 43.0707 93.6578 43.038C92.2302 43.1523 90.857 42.4657 90.0919 41.255V47.8756H87.2339V34.3199C87.2339 32.9739 87.1989 31.593 87.129 30.1771H89.5937L89.751 32.1698C90.608 30.8533 92.037 30.0196 93.6048 29.9215C95.1725 29.8233 96.6943 30.4723 97.7088 31.6716C98.7653 32.9818 99.3103 34.6309 99.2427 36.3126ZM96.3978 36.4175C96.4382 35.3473 96.1499 34.2905 95.5719 33.389C95.0137 32.5701 94.0711 32.0988 93.081 32.1436C92.3951 32.1418 91.7308 32.3833 91.2062 32.8253C90.6461 33.2818 90.2578 33.9151 90.105 34.6214C90.0282 34.8994 89.9842 35.1853 89.9739 35.4735V37.5711C89.9501 38.4229 90.2499 39.252 90.8129 39.8916C91.3926 40.5204 92.2283 40.8489 93.081 40.7831C94.0523 40.82 94.9759 40.3607 95.5325 39.5639C96.1408 38.6304 96.4433 37.5307 96.3978 36.4175Z" fill="white"/>
<path id="Shape_7" d="M115.368 37.8595C115.413 39.2351 114.846 40.5598 113.821 41.4779C112.487 42.5657 110.793 43.1131 109.075 43.0118C107.495 43.0862 105.926 42.7088 104.552 41.9236L105.195 39.5901C106.411 40.3296 107.809 40.7155 109.232 40.7044C110.111 40.7599 110.982 40.5098 111.697 39.9965C112.274 39.5371 112.599 38.8323 112.576 38.0955C112.591 37.4272 112.33 36.7821 111.854 36.3126C111.149 35.715 110.328 35.2687 109.442 35.0016C106.401 33.8304 104.88 32.148 104.88 29.9542C104.833 28.5662 105.44 27.2365 106.519 26.3621C107.737 25.42 109.256 24.9539 110.793 25.0511C112.151 25.0068 113.5 25.2901 114.726 25.877L114.057 28.1581C113.028 27.6126 111.878 27.3374 110.714 27.3584C109.882 27.3051 109.06 27.562 108.407 28.0795C107.958 28.4784 107.704 29.0524 107.712 29.6527C107.698 30.3144 107.994 30.9445 108.511 31.357C109.284 31.926 110.143 32.3685 111.055 32.668C112.31 33.1103 113.445 33.8372 114.372 34.7918C115.076 35.6535 115.432 36.7483 115.368 37.8595Z" fill="white"/>
<path id="Shape_8" d="M124.663 32.2747H121.582V38.384C121.582 39.9397 122.124 40.7176 123.208 40.7176C123.627 40.726 124.045 40.682 124.453 40.5865L124.545 42.6972C123.844 42.9284 123.107 43.0349 122.369 43.0118C121.389 43.0749 120.431 42.7061 119.747 42.0023C119.031 41.0226 118.7 39.8145 118.816 38.6068V32.2747H116.98V30.1771H118.816V27.8698L121.556 27.0438V30.1771H124.637L124.663 32.2747Z" fill="white"/>
<path id="Shape_9" d="M138.56 36.3651C138.627 38.1028 138.038 39.8021 136.908 41.124C135.728 42.4125 134.038 43.1132 132.293 43.0381C130.621 43.1144 129.001 42.4416 127.875 41.2027C126.762 39.9237 126.176 38.2694 126.236 36.5748C126.164 34.8218 126.77 33.1083 127.927 31.7897C129.102 30.5304 130.77 29.8498 132.49 29.9281C134.173 29.8564 135.802 30.5274 136.947 31.7635C138.049 33.037 138.626 34.6821 138.56 36.3651ZM135.662 36.4569C135.694 35.4106 135.436 34.3759 134.915 33.4678C134.436 32.5293 133.465 31.9447 132.411 31.9601C131.318 31.9082 130.294 32.4968 129.789 33.4678C129.264 34.3933 129.006 35.4459 129.042 36.5093C129.015 37.5467 129.273 38.5716 129.789 39.4722C130.285 40.4055 131.256 40.9888 132.313 40.9888C133.37 40.9888 134.34 40.4055 134.836 39.4722C135.389 38.5645 135.675 37.5195 135.662 36.4569Z" fill="white"/>
<path id="Shape_10" d="M147.645 32.6287C147.355 32.5758 147.061 32.5495 146.766 32.55C145.865 32.5041 145.003 32.925 144.485 33.6644C143.999 34.3968 143.756 35.2638 143.79 36.1422V42.6972H140.998V34.0839C140.998 32.6331 140.963 31.3221 140.893 30.1509H143.332L143.436 32.5632H143.515C143.781 31.7775 144.268 31.0855 144.918 30.5704C145.501 30.1363 146.209 29.9018 146.937 29.9018C147.168 29.8836 147.4 29.8836 147.632 29.9018L147.645 32.6287Z" fill="white"/>
<path id="Shape_11" d="M160.152 35.8669C160.161 36.3063 160.126 36.7455 160.047 37.1779H151.656C151.622 38.2599 152.068 39.3016 152.876 40.0228C153.655 40.6325 154.627 40.9439 155.616 40.9011C156.774 40.9182 157.926 40.7181 159.011 40.3112L159.444 42.2515C158.105 42.7975 156.668 43.0609 155.222 43.025C153.516 43.1214 151.847 42.4985 150.621 41.3075C149.471 40.054 148.871 38.3919 148.956 36.6928C148.897 34.98 149.45 33.3021 150.516 31.9601C151.579 30.6242 153.215 29.8745 154.921 29.9412C156.551 29.8499 158.111 30.6151 159.037 31.9601C159.798 33.1185 160.187 34.4815 160.152 35.8669ZM157.53 35.1458C157.568 34.3917 157.381 33.6432 156.992 32.9958C156.523 32.2241 155.665 31.7751 154.764 31.829C153.875 31.8071 153.036 32.2364 152.535 32.9696C152.058 33.6015 151.771 34.3566 151.709 35.1458H157.53Z" fill="white"/>
<path id="Shape_12" d="M64.3045 14.5631C64.4074 15.8794 63.8998 17.1699 62.928 18.0635C61.8786 18.8419 60.5872 19.2228 59.2834 19.1385C58.6133 19.143 57.9435 19.108 57.2776 19.0336V10.6301C58.058 10.506 58.8471 10.4446 59.6374 10.4466C60.8502 10.359 62.0544 10.7078 63.0328 11.4298C63.907 12.2294 64.3742 13.3805 64.3045 14.5631ZM62.8493 14.5631C62.9058 13.7175 62.6173 12.8851 62.0496 12.2558C61.417 11.6847 60.5792 11.396 59.7291 11.4561C59.36 11.4519 58.9913 11.4826 58.6279 11.5478V17.9586C58.9378 17.9783 59.2487 17.9783 59.5587 17.9586C60.4431 18.0448 61.3242 17.7653 61.9972 17.1851C62.6266 16.4637 62.9344 15.5167 62.8493 14.5631Z" fill="white"/>
<path id="Shape_13" d="M71.987 15.8741C72.0201 16.7267 71.7297 17.5602 71.1742 18.2077C70.5945 18.8416 69.7644 19.1871 68.9061 19.1516C68.0866 19.1857 67.2943 18.8544 66.743 18.247C66.1919 17.6176 65.9013 16.802 65.9302 15.9659C65.8947 15.1067 66.1903 14.2668 66.7561 13.6192C67.3325 12.9991 68.1522 12.6636 68.9979 12.7015C69.8248 12.6686 70.6247 12.9991 71.1873 13.6061C71.7328 14.2328 72.0188 15.0439 71.987 15.8741ZM70.558 15.8741C70.5457 15.4135 70.4196 14.9632 70.1909 14.5631C69.9623 14.0955 69.4787 13.8073 68.9586 13.829C68.4148 13.7926 67.9007 14.0805 67.6476 14.5631C67.3902 15.0181 67.2632 15.5352 67.2805 16.0577C67.2654 16.5716 67.3924 17.0797 67.6476 17.526C67.891 17.9843 68.3675 18.2708 68.8865 18.2708C69.4054 18.2708 69.882 17.9843 70.1254 17.526C70.4212 17.0604 70.5718 16.5173 70.558 15.9659V15.8741Z" fill="white"/>
<path id="Shape_14" d="M82.2914 12.885L80.3643 19.0598H79.0533L78.2536 16.4378C78.0532 15.7826 77.8869 15.1175 77.7554 14.4451C77.6365 15.1202 77.47 15.7861 77.2572 16.4378L76.405 19.0598H75.094L73.3373 12.885H74.727L75.448 15.8741C75.6141 16.5733 75.7539 17.2332 75.8675 17.8537C75.9724 17.338 76.1428 16.6825 76.3788 15.8872L77.2572 12.9374H78.3715L79.2106 15.8216C79.4116 16.5208 79.5777 17.1982 79.7088 17.8537C79.8121 17.1693 79.9522 16.491 80.1283 15.8216L80.8756 12.9374L82.2914 12.885Z" fill="white"/>
<path id="Shape_15" d="M89.4102 19.0598H88.0992V15.5201C88.0992 14.4276 87.6622 13.8814 86.7882 13.8814C86.407 13.8781 86.0433 14.0408 85.7918 14.3271C85.5393 14.6226 85.404 15.0005 85.4116 15.389V19.0598H84.1006V14.6549V12.885H85.215V13.8552C85.3809 13.548 85.6252 13.2902 85.9229 13.1079C86.3163 12.8664 86.7727 12.7477 87.2339 12.767C87.7715 12.7498 88.2926 12.9536 88.676 13.3308C89.1854 13.8848 89.4418 14.6255 89.3839 15.3759L89.4102 19.0598Z" fill="white"/>
<path id="Shape_16" d="M93.199 19.0598H91.77V10.0532H93.081L93.199 19.0598Z" fill="white"/>
<path id="Shape_17" d="M101.288 15.8741C101.321 16.7266 101.031 17.5601 100.475 18.2076C99.8953 18.8416 99.0652 19.187 98.207 19.1516C97.3875 19.1856 96.5951 18.8543 96.0438 18.247C95.4928 17.6175 95.2021 16.8019 95.231 15.9658C95.1955 15.1067 95.4912 14.2667 96.0569 13.6191C96.6489 13.0111 97.4785 12.6946 98.325 12.7539C99.1519 12.721 99.9518 13.0515 100.514 13.6585C101.038 14.2756 101.314 15.0652 101.288 15.8741ZM99.8588 15.8741C99.8465 15.4135 99.7204 14.9631 99.4918 14.5631C99.2632 14.0954 98.7795 13.8073 98.2594 13.8289C97.7347 13.8019 97.2445 14.0909 97.014 14.5631C96.7566 15.0181 96.6296 15.5352 96.6469 16.0576C96.6436 16.5494 96.7702 17.0333 97.014 17.4604C97.2696 17.9406 97.7819 18.2275 98.325 18.1945C98.8481 18.2138 99.3326 17.92 99.5573 17.4473C99.7934 16.991 99.8978 16.4781 99.8588 15.9658V15.8741Z" fill="white"/>
<path id="Shape_18" d="M107.935 19.0598H106.702L106.597 18.3519C106.176 18.9217 105.496 19.2418 104.788 19.2041C104.257 19.2268 103.742 19.0217 103.372 18.6403C103.036 18.2892 102.861 17.8146 102.887 17.3293C102.861 16.623 103.223 15.9589 103.831 15.5988C104.634 15.1631 105.541 14.9588 106.453 15.0089V14.9564C106.453 14.1436 106.016 13.7372 105.142 13.7372C104.584 13.734 104.038 13.8935 103.569 14.196L103.294 13.2521C103.936 12.8754 104.673 12.689 105.417 12.7146C107.034 12.7146 107.843 13.5668 107.843 15.2711V17.5522C107.834 18.0564 107.865 18.5605 107.935 19.0598ZM106.506 16.936V15.979C104.994 15.979 104.238 16.416 104.238 17.29C104.217 17.5569 104.313 17.8196 104.5 18.011C104.684 18.1724 104.924 18.2569 105.168 18.247C105.472 18.2461 105.767 18.1447 106.007 17.9586C106.254 17.7842 106.423 17.521 106.479 17.2244C106.501 17.1299 106.509 17.0329 106.506 16.936Z" fill="white"/>
<path id="Shape_19" d="M115.748 19.0598H114.529V18.0634C114.156 18.8035 113.376 19.2478 112.549 19.1909C111.826 19.2044 111.137 18.8796 110.688 18.3125C110.176 17.6655 109.915 16.8554 109.954 16.0314C109.913 15.1521 110.198 14.2886 110.753 13.606C111.23 13.0466 111.932 12.7293 112.667 12.7408C113.36 12.6696 114.034 12.994 114.411 13.5798V10.0532H115.722V17.4079C115.704 18.0023 115.713 18.5529 115.748 19.0598ZM114.319 16.4378V15.4021C114.335 15.2583 114.335 15.1132 114.319 14.9695C114.247 14.6437 114.072 14.3496 113.821 14.1304C113.571 13.9026 113.242 13.7804 112.903 13.7896C112.423 13.7769 111.969 14.0089 111.697 14.4057C111.387 14.8656 111.231 15.4118 111.251 15.9658C111.225 16.4964 111.372 17.0212 111.671 17.4604C111.942 17.8572 112.397 18.0892 112.877 18.0765C113.301 18.0923 113.707 17.9018 113.965 17.5653C114.211 17.2472 114.336 16.8525 114.319 16.4509V16.4378Z" fill="white"/>
<path id="Shape_20" d="M127.495 15.8741C127.528 16.7266 127.237 17.5602 126.682 18.2077C126.103 18.8431 125.272 19.1889 124.414 19.1516C123.594 19.1857 122.802 18.8543 122.251 18.247C121.7 17.6176 121.409 16.8019 121.438 15.9659C121.402 15.1067 121.698 14.2667 122.264 13.6192C122.859 13.0075 123.694 12.6907 124.545 12.7539C125.372 12.7192 126.173 13.05 126.734 13.6585C127.253 14.2775 127.524 15.0669 127.495 15.8741ZM126.066 15.8741C126.053 15.4135 125.927 14.9631 125.699 14.5631C125.47 14.0954 124.986 13.8073 124.466 13.8289C123.95 13.8234 123.475 14.1068 123.234 14.5631C122.977 15.0181 122.85 15.5352 122.867 16.0576C122.864 16.5494 122.99 17.0333 123.234 17.4604C123.477 17.9187 123.954 18.2052 124.473 18.2052C124.992 18.2052 125.468 17.9187 125.712 17.4604C125.967 17.0051 126.09 16.4873 126.066 15.9659V15.8741Z" fill="white"/>
<path id="Shape_21" d="M134.876 19.0598H133.565V15.5201C133.565 14.4276 133.128 13.8814 132.254 13.8814C131.87 13.8668 131.502 14.0316 131.257 14.3271C131.005 14.6226 130.869 15.0005 130.877 15.389V19.0598H129.566V14.6549V12.885H130.772V13.8552C130.939 13.5487 131.183 13.2912 131.48 13.1079C131.874 12.8664 132.33 12.7477 132.791 12.767C133.329 12.7498 133.85 12.9536 134.233 13.3308C134.743 13.8848 134.999 14.6255 134.941 15.3759L134.876 19.0598Z" fill="white"/>
<path id="Shape_22" d="M144.131 13.9076H142.624V16.9098C142.624 17.6702 142.886 18.0504 143.423 18.0504C143.628 18.0765 143.835 18.0765 144.04 18.0504V19.0992C143.697 19.2131 143.338 19.2664 142.978 19.2565C142.488 19.2953 142.007 19.1125 141.667 18.7583C141.315 18.2785 141.151 17.6859 141.208 17.0934V13.9076H140.303V12.8851H141.208V11.7576L142.519 11.3512V12.8851H144.026L144.131 13.9076Z" fill="white"/>
<path id="Shape_23" d="M151.394 19.0598H150.083V15.5463C150.083 14.4363 149.668 13.8813 148.838 13.8813C148.228 13.8605 147.685 14.2626 147.527 14.8515C147.503 15.0167 147.503 15.1845 147.527 15.3497V19.0598H146.216V10.0532H147.527V13.7765C147.915 13.1242 148.63 12.7369 149.388 12.767C149.893 12.7405 150.388 12.9149 150.765 13.2521C151.266 13.821 151.516 14.5676 151.46 15.3234L151.394 19.0598Z" fill="white"/>
<path id="Shape_24" d="M158.906 15.6774C158.926 15.8867 158.926 16.0974 158.906 16.3067H154.698C154.68 16.8407 154.901 17.3549 155.301 17.7095C155.675 18.0013 156.138 18.1542 156.612 18.1421C157.18 18.1505 157.745 18.0527 158.277 17.8537L158.487 18.8107C157.829 19.0762 157.124 19.2055 156.415 19.1909C155.579 19.2394 154.761 18.9351 154.16 18.3519C153.597 17.7352 153.304 16.9182 153.348 16.0838C153.315 15.2402 153.584 14.4125 154.108 13.7503C154.628 13.0909 155.432 12.7205 156.271 12.7539C157.072 12.7103 157.838 13.0881 158.29 13.7503C158.691 14.3128 158.907 14.9865 158.906 15.6774ZM157.595 15.3235C157.617 14.9511 157.526 14.581 157.333 14.2615C157.105 13.8824 156.687 13.6604 156.245 13.6847C155.811 13.6811 155.404 13.8921 155.157 14.2484C154.925 14.5576 154.784 14.9254 154.75 15.3103L157.595 15.3235Z" fill="white"/>
</g>
</g>
</g>
</svg>
