<svg width="131" height="41" viewBox="0 0 131 41" fill="none" xmlns="http://www.w3.org/2000/svg">
<g id="footer-logo.svg" clip-path="url(#clip0_1_118)">
<g id="Website">
<g id="Home">
<g id="ic_logo_footer">
<path id="Shape" d="M67.3066 28.208C65.1722 29.3488 62.7844 29.9191 60.1444 29.9191C58.8078 29.9191 57.5778 29.7072 56.4533 29.2835C55.3455 28.8435 54.3833 28.2324 53.5689 27.4502C52.77 26.6516 52.1433 25.6983 51.6866 24.5902C51.23 23.4821 51.0022 22.2516 51.0022 20.8991C51.0022 19.5139 51.23 18.2591 51.6866 17.1346C52.1433 15.9939 52.77 15.0243 53.5689 14.2258C54.3833 13.4272 55.3455 12.8161 56.4533 12.3924C57.5778 11.9524 58.8078 11.7324 60.1444 11.7324C61.4644 11.7324 62.7033 11.8954 63.86 12.2213C65.0166 12.531 66.0522 13.0932 66.9644 13.908L64.6911 16.2058C64.1366 15.668 63.4611 15.2524 62.6622 14.9591C61.88 14.6658 61.0489 14.5191 60.1689 14.5191C59.2722 14.5191 58.4578 14.6821 57.7244 15.008C57.0078 15.3176 56.3877 15.7576 55.8666 16.328C55.3455 16.8821 54.9378 17.5339 54.6444 18.2835C54.3678 19.0332 54.2289 19.8399 54.2289 20.7035C54.2289 21.6324 54.3678 22.488 54.6444 23.2702C54.9378 24.0524 55.3455 24.7288 55.8666 25.2991C56.3877 25.8694 57.0078 26.3176 57.7244 26.6435C58.4578 26.9694 59.2722 27.1324 60.1689 27.1324C60.9511 27.1324 61.6844 27.0591 62.3689 26.9124C63.07 26.7658 63.6889 26.5376 64.2266 26.228V22.1458H60.6822V19.3591H67.3066V28.208ZM78.0211 27.8658H77.9478C77.5244 28.5339 76.9866 29.0228 76.3344 29.3324C75.6822 29.6258 74.9655 29.7724 74.1833 29.7724C73.6455 29.7724 73.1155 29.6991 72.5944 29.5524C72.0889 29.4058 71.6333 29.1858 71.2255 28.8924C70.8344 28.5991 70.5166 28.2324 70.2722 27.7924C70.0278 27.3524 69.9055 26.8391 69.9055 26.2524C69.9055 25.6169 70.02 25.0791 70.2478 24.6391C70.4755 24.1828 70.7778 23.808 71.1522 23.5146C71.5433 23.205 71.9911 22.9605 72.4966 22.7813C73.0022 22.6021 73.5233 22.4716 74.0611 22.3902C74.6155 22.2924 75.1689 22.2354 75.7233 22.2191C76.2778 22.1865 76.7989 22.1702 77.2878 22.1702H78.0211V21.8524C78.0211 21.1191 77.7689 20.5732 77.2633 20.2146C76.7578 19.8399 76.1144 19.6524 75.3322 19.6524C74.7133 19.6524 74.1344 19.7665 73.5966 19.9946C73.0589 20.2065 72.5944 20.4999 72.2033 20.8746L70.6633 19.3346C71.3155 18.6665 72.0733 18.1858 72.9366 17.8924C73.8166 17.5991 74.7211 17.4524 75.65 17.4524C76.4811 17.4524 77.1822 17.5502 77.7522 17.7458C78.3222 17.925 78.7955 18.1613 79.17 18.4546C79.5444 18.748 79.83 19.0902 80.0255 19.4813C80.2378 19.8561 80.3844 20.2391 80.4655 20.6302C80.5633 21.0213 80.62 21.4043 80.6366 21.7791C80.6533 22.1376 80.6611 22.4554 80.6611 22.7324V29.4791H78.0211V27.8658ZM77.85 24.2235H77.2389C76.8311 24.2235 76.3755 24.2399 75.87 24.2724C75.3644 24.305 74.8844 24.3865 74.4278 24.5169C73.9878 24.631 73.6133 24.8102 73.3033 25.0546C72.9933 25.2828 72.8389 25.6088 72.8389 26.0324C72.8389 26.3094 72.8955 26.5458 73.01 26.7413C73.14 26.9205 73.3033 27.0754 73.4989 27.2058C73.6944 27.3361 73.9144 27.4339 74.1589 27.4991C74.4033 27.548 74.6477 27.5724 74.8922 27.5724C75.9022 27.5724 76.6444 27.3361 77.1166 26.8635C77.6055 26.3746 77.85 25.7146 77.85 24.8835V24.2235ZM82.4478 20.2391V17.7458H84.8677V14.348H87.8011V17.7458H91.0278V20.2391H87.8011V25.3724C87.8011 25.9591 87.9077 26.4235 88.1189 26.7658C88.3478 27.108 88.7878 27.2791 89.4389 27.2791C89.7 27.2791 89.9855 27.2546 90.2944 27.2058C90.6044 27.1405 90.8489 27.0428 91.0278 26.9124V29.3813C90.7189 29.528 90.3355 29.6258 89.8789 29.6746C89.4389 29.7399 89.0478 29.7724 88.7055 29.7724C87.9233 29.7724 87.28 29.6828 86.7744 29.5035C86.2855 29.3405 85.8944 29.088 85.6011 28.7458C85.3244 28.3872 85.1289 27.9472 85.0144 27.4258C84.9166 26.9043 84.8677 26.3013 84.8677 25.6169V20.2391H82.4478ZM92.7311 23.6124C92.7311 22.6835 92.8944 21.8443 93.22 21.0946C93.5622 20.3288 94.0189 19.6769 94.5889 19.1391C95.16 18.6013 95.8355 18.1858 96.6177 17.8924C97.4 17.5991 98.2311 17.4524 99.1111 17.4524C99.9911 17.4524 100.822 17.5991 101.604 17.8924C102.387 18.1858 103.063 18.6013 103.633 19.1391C104.204 19.6769 104.652 20.3288 104.978 21.0946C105.32 21.8443 105.491 22.6835 105.491 23.6124C105.491 24.5413 105.32 25.3888 104.978 26.1546C104.652 26.9043 104.204 27.548 103.633 28.0858C103.063 28.6235 102.387 29.0391 101.604 29.3324C100.822 29.6258 99.9911 29.7724 99.1111 29.7724C98.2311 29.7724 97.4 29.6258 96.6177 29.3324C95.8355 29.0391 95.16 28.6235 94.5889 28.0858C94.0189 27.548 93.5622 26.9043 93.22 26.1546C92.8944 25.3888 92.7311 24.5413 92.7311 23.6124ZM95.6644 23.6124C95.6644 24.0688 95.7378 24.5088 95.8844 24.9324C96.0478 25.3561 96.2755 25.731 96.5689 26.0569C96.8789 26.3828 97.2455 26.6435 97.6689 26.8391C98.0933 27.0346 98.5733 27.1324 99.1111 27.1324C99.6489 27.1324 100.13 27.0346 100.553 26.8391C100.978 26.6435 101.336 26.3828 101.629 26.0569C101.939 25.731 102.167 25.3561 102.313 24.9324C102.477 24.5088 102.558 24.0688 102.558 23.6124C102.558 23.1561 102.477 22.7161 102.313 22.2924C102.167 21.8688 101.939 21.4939 101.629 21.168C101.336 20.8421 100.978 20.5813 100.553 20.3858C100.13 20.1902 99.6489 20.0924 99.1111 20.0924C98.5733 20.0924 98.0933 20.1902 97.6689 20.3858C97.2455 20.5813 96.8789 20.8421 96.5689 21.168C96.2755 21.4939 96.0478 21.8688 95.8844 22.2924C95.7378 22.7161 95.6644 23.1561 95.6644 23.6124ZM110.584 24.6391C110.682 25.5191 111.024 26.2035 111.611 26.6924C112.198 27.1813 112.907 27.4258 113.738 27.4258C114.471 27.4258 115.082 27.2791 115.571 26.9858C116.077 26.6761 116.517 26.2932 116.891 25.8369L118.993 27.4258C118.309 28.2732 117.543 28.8761 116.696 29.2346C115.848 29.5932 114.96 29.7724 114.031 29.7724C113.151 29.7724 112.32 29.6258 111.538 29.3324C110.756 29.0391 110.079 28.6235 109.509 28.0858C108.939 27.548 108.482 26.9043 108.14 26.1546C107.814 25.3888 107.651 24.5413 107.651 23.6124C107.651 22.6835 107.814 21.8443 108.14 21.0946C108.482 20.3288 108.939 19.6769 109.509 19.1391C110.079 18.6013 110.756 18.1858 111.538 17.8924C112.32 17.5991 113.151 17.4524 114.031 17.4524C114.846 17.4524 115.588 17.5991 116.256 17.8924C116.94 18.1694 117.519 18.5769 117.991 19.1146C118.48 19.6524 118.854 20.3205 119.116 21.1191C119.392 21.9013 119.531 22.8058 119.531 23.8324V24.6391H110.584ZM116.598 22.4391C116.581 21.5754 116.312 20.8991 115.791 20.4102C115.27 19.905 114.544 19.6524 113.616 19.6524C112.736 19.6524 112.034 19.905 111.513 20.4102C111.008 20.9154 110.699 21.5916 110.584 22.4391H116.598ZM128.532 20.9969C127.961 20.1983 127.196 19.7991 126.234 19.7991C125.843 19.7991 125.46 19.8969 125.086 20.0924C124.71 20.288 124.523 20.6058 124.523 21.0458C124.523 21.4043 124.678 21.665 124.988 21.828C125.297 21.991 125.688 22.1294 126.161 22.2435C126.633 22.3576 127.139 22.4799 127.677 22.6102C128.23 22.7243 128.743 22.9116 129.217 23.1724C129.689 23.4169 130.08 23.7591 130.39 24.1991C130.699 24.6391 130.854 25.2421 130.854 26.008C130.854 26.7088 130.699 27.3035 130.39 27.7924C130.097 28.265 129.706 28.648 129.217 28.9413C128.743 29.2346 128.206 29.4465 127.603 29.5769C127 29.7072 126.397 29.7724 125.794 29.7724C124.881 29.7724 124.042 29.6421 123.277 29.3813C122.51 29.1205 121.826 28.648 121.223 27.9635L123.179 26.1302C123.553 26.5539 123.952 26.9043 124.377 27.1813C124.817 27.4421 125.346 27.5724 125.966 27.5724C126.177 27.5724 126.397 27.548 126.626 27.4991C126.853 27.4502 127.066 27.3688 127.261 27.2546C127.457 27.1405 127.611 27.0021 127.726 26.8391C127.856 26.6599 127.921 26.4561 127.921 26.228C127.921 25.8205 127.766 25.5191 127.457 25.3235C127.147 25.128 126.756 24.9732 126.283 24.8591C125.81 24.7288 125.297 24.6146 124.743 24.5169C124.206 24.4028 123.7 24.2316 123.228 24.0035C122.754 23.7591 122.363 23.425 122.054 23.0013C121.744 22.5776 121.59 21.991 121.59 21.2413C121.59 20.5894 121.72 20.0272 121.981 19.5546C122.258 19.0658 122.617 18.6665 123.057 18.3569C123.497 18.0472 124.001 17.8191 124.572 17.6724C125.142 17.5258 125.721 17.4524 126.308 17.4524C127.09 17.4524 127.863 17.591 128.63 17.868C129.396 18.1288 130.014 18.585 130.488 19.2369L128.532 20.9969Z" fill="#6C687E"/>
<g id="Group-2">
<path id="Path" opacity="0.5" fill-rule="evenodd" clip-rule="evenodd" d="M39.6749 0.915866C39.8881 1.91942 40.0003 2.96042 40.0003 4.02753C40.0003 12.2543 33.3313 18.9233 25.1047 18.9233C24.0371 18.9233 22.9958 18.811 21.9919 18.5976C21.7787 17.594 21.6664 16.553 21.6664 15.4859C21.6664 7.25909 28.3354 0.590088 36.5621 0.590088C37.6297 0.590088 38.671 0.702421 39.6749 0.915866Z" fill="#6C687E"/>
<path id="Path_2" fill-rule="evenodd" clip-rule="evenodd" d="M19.9999 32.5899C13.3726 32.5899 8 27.2173 8 20.59C8 13.9626 13.3726 8.59009 19.9999 8.59009V0.590088C8.95422 0.590088 0 9.54431 0 20.59C0 31.6355 8.95422 40.5899 19.9999 40.5899C31.0454 40.5899 39.9998 31.6355 39.9998 20.59H31.9998C31.9998 27.2173 26.6272 32.5899 19.9999 32.5899Z" fill="#6C687E"/>
</g>
</g>
</g>
</g>
</g>
<defs>
<clipPath id="clip0_1_118">
<rect width="131" height="40" fill="white" transform="translate(0 0.590088)"/>
</clipPath>
</defs>
</svg>
