<svg width="177" height="55" viewBox="0 0 177 55" fill="none" xmlns="http://www.w3.org/2000/svg">
<g id="google-play.svg">
<g id="Page-1">
<g id="google-play">
<path id="Shape" d="M170.707 53.3531C173.819 53.3531 176.355 50.8519 176.4 47.745V7.66997C176.355 4.55432 173.819 2.0531 170.707 2.0531H6.20156C3.10805 2.0531 0.600006 4.5638 0.600006 7.66123V47.7437C0.606523 50.8391 3.11132 53.3466 6.20156 53.3531H170.707Z" fill="black" stroke="#A6A6A6" stroke-width="1.2"/>
<g id="copy">
<path id="Shape_2" d="M62.1414 14.8253C62.1414 15.8741 61.8792 16.7918 61.2237 17.4473C60.4371 18.2339 59.5194 18.6272 58.3395 18.6272C57.1596 18.6272 56.2419 18.2339 55.4553 17.4473C54.6687 16.6607 54.2754 15.743 54.2754 14.5631C54.2754 13.3832 54.6687 12.4655 55.4553 11.6789C56.2419 10.8923 57.1596 10.499 58.3395 10.499C58.8639 10.499 59.3883 10.6301 59.9127 10.8923C60.4371 11.1545 60.8304 11.4167 61.0926 11.81L60.4371 12.4655C59.9127 11.81 59.2572 11.5478 58.3395 11.5478C57.5529 11.5478 56.7663 11.81 56.2419 12.4655C55.5864 12.9899 55.3242 13.7765 55.3242 14.6942C55.3242 15.6119 55.5864 16.3985 56.2419 16.9229C56.8974 17.4473 57.5529 17.8406 58.3395 17.8406C59.2572 17.8406 59.9127 17.5784 60.5682 16.9229C60.9615 16.5296 61.2237 16.0052 61.2237 15.3497H58.3395V14.3009H62.1414C62.1414 14.432 62.1414 14.6942 62.1414 14.8253Z" fill="white" stroke="white" stroke-width="0.5"/>
<path id="Shape_3" d="M68.172 11.5478H64.6323V14.0387H67.9098V14.9564H64.6323V17.4473H68.172V18.4961H63.5835V10.6301H68.172V11.5478Z" fill="white" stroke="white" stroke-width="0.5"/>
<path id="Shape_4" d="M72.4983 18.4961H71.4495V11.5478H69.2208V10.6301H74.727V11.5478H72.4983V18.4961Z" fill="white" stroke="white" stroke-width="0.5"/>
<path id="Shape_5" d="M78.5289 18.4961V10.6301H79.5777V18.4961H78.5289Z" fill="white" stroke="white" stroke-width="0.5"/>
<path id="Shape_6" d="M84.0351 18.4961H82.9863V11.5478H80.7576V10.6301H86.1327V11.5478H83.904V18.4961H84.0351Z" fill="white" stroke="white" stroke-width="0.5"/>
<path id="Shape_7" d="M96.4896 17.4473C95.703 18.2339 94.7853 18.6272 93.6054 18.6272C92.4255 18.6272 91.5078 18.2339 90.7212 17.4473C89.9346 16.6607 89.5413 15.743 89.5413 14.5631C89.5413 13.3832 89.9346 12.4655 90.7212 11.6789C91.5078 10.8923 92.4255 10.499 93.6054 10.499C94.7853 10.499 95.703 10.8923 96.4896 11.6789C97.2762 12.4655 97.6695 13.3832 97.6695 14.5631C97.6695 15.743 97.2762 16.6607 96.4896 17.4473ZM91.5078 16.7918C92.0322 17.3162 92.8188 17.7095 93.6054 17.7095C94.392 17.7095 95.1786 17.4473 95.703 16.7918C96.2274 16.2674 96.6207 15.4808 96.6207 14.5631C96.6207 13.6454 96.3585 12.8588 95.703 12.3344C95.1786 11.81 94.392 11.4167 93.6054 11.4167C92.8188 11.4167 92.0322 11.6789 91.5078 12.3344C90.9834 12.8588 90.5901 13.6454 90.5901 14.5631C90.5901 15.4808 90.8523 16.2674 91.5078 16.7918Z" fill="white" stroke="white" stroke-width="0.5"/>
<path id="Shape_8" d="M99.1116 18.4961V10.6301H100.291L104.093 16.7918V15.2186V10.6301H105.142V18.4961H104.093L100.029 12.0722V13.6454V18.4961H99.1116Z" fill="white" stroke="white" stroke-width="0.5"/>
</g>
<path id="Shape_9" d="M89.2791 30.0329C86.1327 30.0329 83.6418 32.3927 83.6418 35.6702C83.6418 38.8166 86.1327 41.3075 89.2791 41.3075C92.4255 41.3075 94.9164 38.9477 94.9164 35.6702C94.9164 32.2616 92.4255 30.0329 89.2791 30.0329ZM89.2791 38.9477C87.5748 38.9477 86.1327 37.5056 86.1327 35.5391C86.1327 33.5726 87.5748 32.1305 89.2791 32.1305C90.9834 32.1305 92.4255 33.4415 92.4255 35.5391C92.4255 37.5056 90.9834 38.9477 89.2791 38.9477ZM77.0868 30.0329C73.9404 30.0329 71.4495 32.3927 71.4495 35.6702C71.4495 38.8166 73.9404 41.3075 77.0868 41.3075C80.2332 41.3075 82.7241 38.9477 82.7241 35.6702C82.7241 32.2616 80.2332 30.0329 77.0868 30.0329ZM77.0868 38.9477C75.3825 38.9477 73.9404 37.5056 73.9404 35.5391C73.9404 33.5726 75.3825 32.1305 77.0868 32.1305C78.7911 32.1305 80.2332 33.4415 80.2332 35.5391C80.2332 37.5056 78.7911 38.9477 77.0868 38.9477ZM62.5347 31.7372V34.097H68.172C68.0409 35.408 67.5165 36.4568 66.861 37.1123C66.0744 37.8989 64.7634 38.8166 62.5347 38.8166C58.995 38.8166 56.373 36.0635 56.373 32.5238C56.373 28.9841 59.1261 26.231 62.5347 26.231C64.3701 26.231 65.8122 27.0176 66.861 27.9353L68.5653 26.231C67.1232 24.92 65.2878 23.8712 62.6658 23.8712C57.9462 23.8712 53.8821 27.8042 53.8821 32.5238C53.8821 37.2434 57.9462 41.1764 62.6658 41.1764C65.2878 41.1764 67.1232 40.3898 68.6964 38.6855C70.2696 37.1123 70.794 34.8836 70.794 33.1793C70.794 32.6549 70.794 32.1305 70.6629 31.7372H62.5347ZM122.054 33.5726C121.53 32.2616 120.219 30.0329 117.335 30.0329C114.45 30.0329 112.091 32.2616 112.091 35.6702C112.091 38.8166 114.45 41.3075 117.597 41.3075C120.088 41.3075 121.661 39.7343 122.185 38.8166L120.35 37.5056C119.694 38.4233 118.908 39.0788 117.597 39.0788C116.286 39.0788 115.499 38.5544 114.844 37.3745L122.316 34.2281L122.054 33.5726ZM114.45 35.408C114.45 33.3104 116.155 32.1305 117.335 32.1305C118.252 32.1305 119.17 32.6549 119.432 33.3104L114.45 35.408ZM108.289 40.7831H110.78V24.3956H108.289V40.7831ZM104.356 31.2128C103.7 30.5573 102.651 29.9018 101.34 29.9018C98.5872 29.9018 95.9652 32.3927 95.9652 35.5391C95.9652 38.6855 98.4561 41.0453 101.34 41.0453C102.651 41.0453 103.7 40.3898 104.225 39.7343H104.356V40.5209C104.356 42.6185 103.176 43.7984 101.34 43.7984C99.8982 43.7984 98.8494 42.7496 98.5872 41.8319L96.4896 42.7496C97.1451 44.1917 98.7183 46.0271 101.471 46.0271C104.356 46.0271 106.715 44.3228 106.715 40.2587V30.2951H104.356V31.2128ZM101.471 38.9477C99.7671 38.9477 98.325 37.5056 98.325 35.5391C98.325 33.5726 99.7671 32.1305 101.471 32.1305C103.176 32.1305 104.487 33.5726 104.487 35.5391C104.487 37.5056 103.176 38.9477 101.471 38.9477ZM133.46 24.3956H127.56V40.7831H130.051V34.6214H133.46C136.213 34.6214 138.835 32.6549 138.835 29.5085C138.835 26.3621 136.213 24.3956 133.46 24.3956ZM133.591 32.2616H130.051V26.6243H133.591C135.426 26.6243 136.475 28.1975 136.475 29.3774C136.344 30.8195 135.295 32.2616 133.591 32.2616ZM148.667 29.9018C146.832 29.9018 144.997 30.6884 144.341 32.3927L146.57 33.3104C147.094 32.3927 147.881 32.1305 148.799 32.1305C150.11 32.1305 151.289 32.9171 151.421 34.2281V34.3592C151.027 34.097 149.978 33.7037 148.93 33.7037C146.57 33.7037 144.21 35.0147 144.21 37.3745C144.21 39.6032 146.177 41.0453 148.274 41.0453C149.978 41.0453 150.765 40.2587 151.421 39.4721H151.552V40.7831H153.911V34.4903C153.649 31.6061 151.421 29.9018 148.667 29.9018ZM148.405 38.9477C147.619 38.9477 146.439 38.5544 146.439 37.5056C146.439 36.1946 147.881 35.8013 149.061 35.8013C150.11 35.8013 150.634 36.0635 151.289 36.3257C151.027 37.8989 149.716 38.9477 148.405 38.9477ZM162.171 30.2951L159.418 37.3745H159.287L156.402 30.2951H153.78L158.107 40.2587L155.616 45.7649H158.107L164.793 30.2951H162.171ZM140.146 40.7831H142.637V24.3956H140.146V40.7831Z" fill="white"/>
<g id="play">
<path id="Shape_10" d="M13.6344 11.2856C13.2411 11.6789 13.11 12.3344 13.11 13.121V42.0941C13.11 42.8807 13.3722 43.5362 13.7655 43.9295L13.8966 44.0606L30.153 27.8042V27.6731V27.542L13.6344 11.2856Z" fill="url(#paint0_linear_1_58)"/>
<path id="Shape_11" d="M35.397 33.3105L30.0219 27.9354V27.6732V27.5421L35.397 22.167L35.5281 22.2981L41.952 25.9689C43.7874 27.0177 43.7874 28.722 41.952 29.7708L35.397 33.3105Z" fill="url(#paint1_linear_1_58)"/>
<path id="Shape_12" d="M35.5281 33.1793L30.0219 27.6731L13.6344 44.0606C14.2899 44.7161 15.2076 44.7161 16.3875 44.1917L35.5281 33.1793Z" fill="url(#paint2_linear_1_58)"/>
<path id="Shape_13" d="M35.5281 22.167L16.3875 11.2857C15.2076 10.6302 14.2899 10.7613 13.6344 11.4168L30.0219 27.6732L35.5281 22.167Z" fill="url(#paint3_linear_1_58)"/>
<g id="Group">
<path id="Shape_14" opacity="0.2" d="M35.397 33.0482L16.3875 43.7984C15.3387 44.4539 14.421 44.3228 13.7655 43.7984L13.6344 43.9295L13.7655 44.0606C14.421 44.585 15.3387 44.7161 16.3875 44.0606L35.397 33.0482Z" fill="black"/>
<path id="Shape_15" opacity="0.12" d="M13.6344 43.7984C13.2411 43.4051 13.11 42.7496 13.11 41.963V42.0941C13.11 42.8807 13.3722 43.5362 13.7655 43.9295V43.7984H13.6344Z" fill="black"/>
</g>
<path id="Shape_16" opacity="0.12" d="M41.952 29.3774L35.397 33.0482L35.5281 33.1793L41.952 29.5085C42.8697 28.9841 43.263 28.3286 43.263 27.6731C43.263 28.3286 42.7386 28.853 41.952 29.3774Z" fill="black"/>
<path id="Shape_17" opacity="0.25" d="M16.3875 11.4168L41.952 25.9689C42.7386 26.4933 43.263 27.0177 43.263 27.6732C43.263 27.0177 42.8697 26.3622 41.952 25.8378L16.3875 11.2857C14.5521 10.2369 13.11 11.0235 13.11 13.1211V13.2522C13.11 11.2857 14.5521 10.368 16.3875 11.4168Z" fill="white"/>
</g>
</g>
</g>
</g>
<defs>
<linearGradient id="paint0_linear_1_58" x1="1053.13" y1="169.877" x2="-344.422" y2="1567.43" gradientUnits="userSpaceOnUse">
<stop stop-color="#00A0FF"/>
<stop offset="0.00657445" stop-color="#00A1FF"/>
<stop offset="0.2601" stop-color="#00BEFF"/>
<stop offset="0.5122" stop-color="#00D2FF"/>
<stop offset="0.7604" stop-color="#00DFFF"/>
<stop offset="1" stop-color="#00E3FF"/>
</linearGradient>
<linearGradient id="paint1_linear_1_58" x1="1463.51" y1="572.971" x2="-1708.7" y2="572.971" gradientUnits="userSpaceOnUse">
<stop stop-color="#FFE000"/>
<stop offset="0.4087" stop-color="#FFBD00"/>
<stop offset="0.7754" stop-color="#FFA500"/>
<stop offset="1" stop-color="#FF9C00"/>
</linearGradient>
<linearGradient id="paint2_linear_1_58" x1="1905" y1="548.6" x2="-475.367" y2="2928.97" gradientUnits="userSpaceOnUse">
<stop stop-color="#FF3A44"/>
<stop offset="1" stop-color="#C31162"/>
</linearGradient>
<linearGradient id="paint3_linear_1_58" x1="-393.143" y1="-185.625" x2="666.126" y2="873.633" gradientUnits="userSpaceOnUse">
<stop stop-color="#32A071"/>
<stop offset="0.0685" stop-color="#2DA771"/>
<stop offset="0.4762" stop-color="#15CF74"/>
<stop offset="0.8009" stop-color="#06E775"/>
<stop offset="1" stop-color="#00F076"/>
</linearGradient>
</defs>
</svg>
