<svg width="130" height="41" viewBox="0 0 130 41" fill="none" xmlns="http://www.w3.org/2000/svg">
<g id="logo.svg" clip-path="url(#clip0_1_226)">
<g id="Website">
<g id="Artboard">
<g id="ic_logo_onboarding">
<path id="Shape" d="M66.7926 28.1537C64.6747 29.2857 62.3055 29.8516 59.6859 29.8516C58.3596 29.8516 57.1392 29.6413 56.0234 29.221C54.9242 28.7844 53.9695 28.178 53.1613 27.4018C52.3686 26.6095 51.7468 25.6635 51.2937 24.564C50.8406 23.4645 50.6146 22.2436 50.6146 20.9015C50.6146 19.527 50.8406 18.282 51.2937 17.1662C51.7468 16.0343 52.3686 15.0723 53.1613 14.2799C53.9695 13.4875 54.9242 12.8811 56.0234 12.4608C57.1392 12.0242 58.3596 11.8059 59.6859 11.8059C60.9957 11.8059 62.225 11.9676 63.3727 12.291C64.5204 12.5982 65.5479 13.1561 66.4531 13.9646L64.1974 16.2445C63.6472 15.7109 62.9769 15.2986 62.1842 15.0075C61.408 14.7165 60.5834 14.5709 59.7102 14.5709C58.8205 14.5709 58.0123 14.7327 57.2847 15.056C56.5736 15.3633 55.9584 15.7999 55.4413 16.3658C54.9242 16.9156 54.5196 17.5624 54.2286 18.3062C53.954 19.0501 53.8162 19.8505 53.8162 20.7075C53.8162 21.6292 53.954 22.4781 54.2286 23.2542C54.5196 24.0304 54.9242 24.7015 55.4413 25.2674C55.9584 25.8333 56.5736 26.2781 57.2847 26.6014C58.0123 26.9248 58.8205 27.0865 59.7102 27.0865C60.4863 27.0865 61.214 27.0138 61.8931 26.8682C62.5888 26.7227 63.2029 26.4964 63.7365 26.1891V22.1385H60.2195V19.3734H66.7926V28.1537ZM77.4241 27.8142H77.3513C76.9312 28.4771 76.3976 28.9622 75.7505 29.2695C75.1033 29.5605 74.3922 29.7061 73.616 29.7061C73.0824 29.7061 72.5565 29.6333 72.0394 29.4878C71.5378 29.3422 71.0858 29.1239 70.6812 28.8329C70.2931 28.5418 69.9778 28.178 69.7352 27.7414C69.4927 27.3048 69.3714 26.7955 69.3714 26.2133C69.3714 25.5827 69.485 25.0491 69.711 24.6125C69.937 24.1597 70.2369 23.7878 70.6084 23.4968C70.9965 23.1895 71.4408 22.947 71.9424 22.7691C72.4441 22.5913 72.9611 22.4619 73.4947 22.3811C74.0449 22.284 74.5939 22.2275 75.1441 22.2113C75.6942 22.179 76.2113 22.1628 76.6964 22.1628H77.4241V21.8474C77.4241 21.1198 77.1738 20.5781 76.6722 20.2224C76.1705 19.8505 75.5322 19.6645 74.756 19.6645C74.1419 19.6645 73.5675 19.7777 73.0339 20.0041C72.5003 20.2143 72.0394 20.5054 71.6514 20.8772L70.1233 19.3492C70.7705 18.6862 71.5224 18.2092 72.379 17.9181C73.2522 17.6271 74.1496 17.4815 75.0713 17.4815C75.896 17.4815 76.5917 17.5786 77.1572 17.7726C77.7228 17.9504 78.1925 18.1849 78.564 18.476C78.9356 18.7671 79.2189 19.1066 79.413 19.4947C79.6235 19.8666 79.7691 20.2466 79.8496 20.6347C79.9466 21.0228 80.0028 21.4028 80.0193 21.7747C80.0359 22.1305 80.0436 22.4458 80.0436 22.7206V29.415H77.4241V27.8142ZM77.2543 24.2002H76.6479C76.2433 24.2002 75.7913 24.2164 75.2896 24.2487C74.788 24.281 74.3117 24.3619 73.8586 24.4912C73.422 24.6045 73.0504 24.7823 72.7428 25.0249C72.4352 25.2512 72.282 25.5747 72.282 25.9951C72.282 26.2699 72.3382 26.5044 72.4518 26.6984C72.5808 26.8763 72.7428 27.03 72.9369 27.1593C73.1309 27.2886 73.3492 27.3856 73.5918 27.4504C73.8343 27.4989 74.0769 27.5231 74.3194 27.5231C75.3216 27.5231 76.0581 27.2886 76.5266 26.8197C77.0117 26.3346 77.2543 25.6797 77.2543 24.8551V24.2002ZM81.8164 20.2466V17.7726H84.2177V14.4012H87.1283V17.7726H90.3299V20.2466H87.1283V25.3402C87.1283 25.9223 87.2341 26.3831 87.4436 26.7227C87.6707 27.0623 88.1073 27.2321 88.7533 27.2321C89.0124 27.2321 89.2958 27.2078 89.6023 27.1593C89.9099 27.0946 90.1524 26.9976 90.3299 26.8682V29.318C90.0234 29.4635 89.6431 29.5605 89.1899 29.609C88.7533 29.6738 88.3653 29.7061 88.0257 29.7061C87.2495 29.7061 86.6112 29.6171 86.1095 29.4393C85.6244 29.2775 85.2364 29.0269 84.9453 28.6874C84.6708 28.3316 84.4767 27.895 84.3632 27.3776C84.2662 26.8602 84.2177 26.2619 84.2177 25.5827V20.2466H81.8164ZM92.0201 23.5938C92.0201 22.6721 92.1821 21.8394 92.5051 21.0955C92.8447 20.3356 93.2978 19.6888 93.8634 19.1551C94.4301 18.6215 95.1004 18.2092 95.8766 17.9181C96.6528 17.6271 97.4774 17.4815 98.3506 17.4815C99.2238 17.4815 100.048 17.6271 100.825 17.9181C101.601 18.2092 102.272 18.6215 102.838 19.1551C103.404 19.6888 103.849 20.3356 104.172 21.0955C104.511 21.8394 104.681 22.6721 104.681 23.5938C104.681 24.5155 104.511 25.3564 104.172 26.1163C103.849 26.8602 103.404 27.4989 102.838 28.0325C102.272 28.5661 101.601 28.9784 100.825 29.2695C100.048 29.5605 99.2238 29.7061 98.3506 29.7061C97.4774 29.7061 96.6528 29.5605 95.8766 29.2695C95.1004 28.9784 94.4301 28.5661 93.8634 28.0325C93.2978 27.4989 92.8447 26.8602 92.5051 26.1163C92.1821 25.3564 92.0201 24.5155 92.0201 23.5938ZM94.9306 23.5938C94.9306 24.0466 95.0034 24.4832 95.1489 24.9036C95.311 25.324 95.537 25.6959 95.8281 26.0193C96.1357 26.3427 96.4995 26.6014 96.9196 26.7955C97.3407 26.9895 97.817 27.0865 98.3506 27.0865C98.8842 27.0865 99.3616 26.9895 99.7816 26.7955C100.203 26.6014 100.558 26.3427 100.849 26.0193C101.156 25.6959 101.382 25.324 101.528 24.9036C101.69 24.4832 101.771 24.0466 101.771 23.5938C101.771 23.141 101.69 22.7044 101.528 22.284C101.382 21.8637 101.156 21.4917 100.849 21.1683C100.558 20.8449 100.203 20.5862 99.7816 20.3921C99.3616 20.1981 98.8842 20.1011 98.3506 20.1011C97.817 20.1011 97.3407 20.1981 96.9196 20.3921C96.4995 20.5862 96.1357 20.8449 95.8281 21.1683C95.537 21.4917 95.311 21.8637 95.1489 22.284C95.0034 22.7044 94.9306 23.141 94.9306 23.5938ZM109.735 24.6125C109.832 25.4857 110.172 26.1648 110.754 26.6499C111.336 27.135 112.039 27.3776 112.864 27.3776C113.592 27.3776 114.198 27.2321 114.683 26.941C115.185 26.6337 115.621 26.2538 115.993 25.801L118.079 27.3776C117.4 28.2185 116.64 28.8167 115.799 29.1725C114.958 29.5282 114.077 29.7061 113.155 29.7061C112.282 29.7061 111.457 29.5605 110.681 29.2695C109.905 28.9784 109.233 28.5661 108.668 28.0325C108.102 27.4989 107.649 26.8602 107.31 26.1163C106.986 25.3564 106.824 24.5155 106.824 23.5938C106.824 22.6721 106.986 21.8394 107.31 21.0955C107.649 20.3356 108.102 19.6888 108.668 19.1551C109.233 18.6215 109.905 18.2092 110.681 17.9181C111.457 17.6271 112.282 17.4815 113.155 17.4815C113.963 17.4815 114.7 17.6271 115.362 17.9181C116.041 18.193 116.616 18.5973 117.084 19.1309C117.569 19.6645 117.941 20.3274 118.2 21.1198C118.475 21.896 118.612 22.7934 118.612 23.8121V24.6125H109.735ZM115.702 22.4296C115.685 21.5726 115.418 20.9015 114.901 20.4164C114.384 19.9151 113.664 19.6645 112.743 19.6645C111.869 19.6645 111.174 19.9151 110.657 20.4164C110.155 20.9177 109.849 21.5887 109.735 22.4296H115.702ZM127.544 20.9985C126.977 20.2062 126.217 19.81 125.264 19.81C124.876 19.81 124.495 19.907 124.124 20.1011C123.751 20.2951 123.566 20.6104 123.566 21.047C123.566 21.4028 123.719 21.6615 124.027 21.8232C124.333 21.9849 124.721 22.1223 125.191 22.2355C125.66 22.3488 126.161 22.47 126.695 22.5994C127.244 22.7126 127.753 22.8985 128.223 23.1572C128.691 23.3998 129.079 23.7393 129.387 24.1759C129.694 24.6125 129.848 25.2108 129.848 25.9708C129.848 26.6661 129.694 27.2563 129.387 27.7414C129.096 28.2103 128.708 28.5903 128.223 28.8814C127.753 29.1725 127.22 29.3827 126.622 29.512C126.023 29.6413 125.425 29.7061 124.827 29.7061C123.921 29.7061 123.089 29.5767 122.329 29.318C121.568 29.0592 120.889 28.5903 120.291 27.9112L122.232 26.0921C122.603 26.5125 122.999 26.8602 123.42 27.135C123.857 27.3938 124.382 27.5231 124.997 27.5231C125.206 27.5231 125.425 27.4989 125.652 27.4504C125.878 27.4018 126.088 27.321 126.282 27.2078C126.476 27.0946 126.63 26.9572 126.743 26.7955C126.872 26.6176 126.937 26.4154 126.937 26.1891C126.937 25.7848 126.783 25.4857 126.476 25.2917C126.169 25.0976 125.781 24.944 125.312 24.8308C124.843 24.7015 124.333 24.5883 123.784 24.4912C123.251 24.378 122.749 24.2082 122.28 23.9819C121.811 23.7393 121.423 23.4078 121.116 22.9874C120.809 22.567 120.655 21.9849 120.655 21.2411C120.655 20.5942 120.784 20.0364 121.043 19.5675C121.318 19.0824 121.674 18.6862 122.111 18.379C122.547 18.0717 123.048 17.8454 123.614 17.6998C124.18 17.5543 124.754 17.4815 125.337 17.4815C126.113 17.4815 126.88 17.619 127.641 17.8939C128.4 18.1526 129.014 18.6053 129.484 19.2522L127.544 20.9985Z" fill="#F76754"/>
<g id="Group-2">
<path id="Path" fill-rule="evenodd" clip-rule="evenodd" d="M39.375 1.07325C39.5866 2.06903 39.698 3.10196 39.698 4.1608C39.698 12.3238 33.0806 18.9411 24.9177 18.9411C23.8585 18.9411 22.8252 18.8297 21.8291 18.618C21.6175 17.6221 21.5062 16.5892 21.5062 15.5303C21.5062 7.36732 28.1235 0.75 36.2864 0.75C37.3457 0.75 38.3789 0.861463 39.375 1.07325Z" fill="#81C341"/>
<path id="Path_2" fill-rule="evenodd" clip-rule="evenodd" d="M19.8525 32.5018C13.2765 32.5018 7.94563 27.1709 7.94563 20.5949C7.94563 14.0189 13.2765 8.688 19.8525 8.688V0.75C8.89246 0.75 0.00762939 9.63483 0.00762939 20.5949C0.00762939 31.5548 8.89246 40.4398 19.8525 40.4398C30.8125 40.4398 39.6974 31.5548 39.6974 20.5949H31.7594C31.7594 27.1709 26.4285 32.5018 19.8525 32.5018Z" fill="#F76754"/>
</g>
</g>
</g>
</g>
</g>
<defs>
<clipPath id="clip0_1_226">
<rect width="129.985" height="39.69" fill="white" transform="translate(0.00762939 0.75)"/>
</clipPath>
</defs>
</svg>
